<svg xmlns="http://www.w3.org/2000/svg" viewBox="0 0 24 24" width="24" height="24">
  <path fill="#FFC107" d="M12,2C8.14,2 5,5.14 5,9C5,13.5 9.5,22 12,22C14.5,22 19,13.5 19,9C19,5.14 15.86,2 12,2Z"/>
  <path fill="#4CAF50" d="M12,2C10.5,2 9.19,2.5 8.14,3.36C7.16,5.07 6.31,7.77 6.06,11.72C6.21,11.92 6.39,12 6.56,12C7.32,12 7.68,11.25 8.11,10.37C8.42,9.7 8.77,8.96 9.26,8.46C9.59,8.13 9.97,7.95 10.49,7.95C10.49,7.95 10.94,7.95 11.03,7.95C11.37,7.96 11.89,8 12.27,8.42C12.66,8.85 12.86,9.25 13.17,9.9C13.47,10.54 13.87,11.39 14.69,11.39C15.5,11.39 15.9,10.92 16.2,10.25C16.42,9.74 16.58,9.09 16.88,8.54C17.15,8.05 17.54,7.74 18.12,7.74C18.37,7.74 18.59,7.79 18.78,7.91C18.93,6.82 18.93,5.8 18.8,4.99C17.72,3.2 15.01,2 12,2Z"/>
</svg> 